<svg id="Layer_1" data-name="Layer 1" xmlns="http://www.w3.org/2000/svg" viewBox="0 0 761 761"><defs><style>.cls-1{fill:#b89957;}.cls-2,.cls-3{fill:#fbfcfc;}.cls-3{font-size:130px;font-family:Sacramento-Regular, Sacramento;}</style></defs><rect class="cls-1" width="761" height="761"/><path class="cls-2" d="M430.21,590H385.79A27.86,27.86,0,0,0,358,617.79v.42A27.86,27.86,0,0,0,385.79,646h44.42A27.86,27.86,0,0,0,458,618.21v-.42A27.86,27.86,0,0,0,430.21,590Zm-3.3,38h-34a10.5,10.5,0,0,1-10.5-10.5h0a10.5,10.5,0,0,1,10.5-10.5h34a10.5,10.5,0,0,1,10.5,10.5h0A10.5,10.5,0,0,1,426.91,628Z"/><rect class="cls-2" x="317" y="667" width="107" height="15" rx="5.24"/><path class="cls-2" d="M317,590v37.12c0,27.22,23.95,49.28,53.5,49.28S424,654.34,424,627.12V590Z"/><text class="cls-3" transform="translate(120.66 184.69) scale(1.16 1)">a cup of chi</text></svg>