<svg xmlns="http://www.w3.org/2000/svg" viewBox="0 0 159.15 121.97"><defs><style>.cls-1{fill:#744d33;}.cls-2{fill:#f0544a;}</style></defs><title>favicon</title><g id="Layer_2" data-name="Layer 2"><g id="Layer_1-2" data-name="Layer 1"><path class="cls-1" d="M37,114.68c-11.83,0-21.1-4.89-27.56-14.54C3.16,90.84,0,77.62,0,60.85s3.22-30,9.56-39.35c6.57-9.7,16-14.62,27.87-14.62,6.56,0,14.3,1.49,23,4.42l1.82.62V31.07l-3.83-1.83c-9.22-4.42-16.33-6.66-21.14-6.66-6.67,0-11.72,3.08-15.42,9.42C17.94,38.71,16,48.46,16,61c0,11.87,2.12,21.3,6.3,28,4,6.41,9.23,9.52,16,9.52,6,0,12.7-2.68,19.8-8l4.27-3.19v18.57l-1.12.8A41,41,0,0,1,37,114.68Z"/><rect class="cls-1" x="74.4" width="52.91" height="57.94"/><path class="cls-2" d="M59.67,117.1V4.87A4.88,4.88,0,0,1,64.55,0H75V51.43h51.46V0h15.35V122H126.49V64.36H75V122H64.55A4.88,4.88,0,0,1,59.67,117.1Z"/><path class="cls-1" d="M141.84,122V0h12.43a4.87,4.87,0,0,1,4.88,4.87V117.1a4.87,4.87,0,0,1-4.88,4.87Z"/><rect class="cls-1" x="75.03" y="64.36" width="51.46" height="57.61"/></g></g></svg>