<svg xmlns="http://www.w3.org/2000/svg" viewBox="0 0 199.11 121.97"><defs><style>.cls-1,.cls-3{fill:#744d33;}.cls-2{fill:#f0544a;}.cls-3{font-size:29.72px;font-family:LucidaGrande, Lucida Grande;}</style></defs><title>logo</title><g id="Layer_2" data-name="Layer 2"><g id="Layer_1-2" data-name="Layer 1"><path class="cls-1" d="M76.91,114.68c-11.83,0-21.1-4.89-27.56-14.54C43.12,90.84,40,77.62,40,60.85s3.22-30,9.56-39.35C56.09,11.8,65.46,6.88,77.38,6.88c6.57,0,14.31,1.49,23,4.42l1.82.62V31.07l-3.83-1.83C89.16,24.82,82,22.58,77.24,22.58c-6.67,0-11.72,3.08-15.42,9.42-3.92,6.71-5.91,16.46-5.91,29,0,11.87,2.12,21.3,6.3,28,4,6.41,9.23,9.52,16,9.52,6,0,12.7-2.68,19.79-8l4.28-3.19v18.57l-1.12.8A41,41,0,0,1,76.91,114.68Z"/><rect class="cls-1" x="114.35" width="52.91" height="57.94"/><path class="cls-2" d="M99.63,117.1V4.87A4.87,4.87,0,0,1,104.51,0H115V51.43h51.47V0H181.8V122H166.45V64.36H115V122H104.51A4.87,4.87,0,0,1,99.63,117.1Z"/><path class="cls-1" d="M181.8,122V0h12.43a4.87,4.87,0,0,1,4.88,4.87V117.1a4.87,4.87,0,0,1-4.88,4.87Z"/><rect class="cls-1" x="114.98" y="64.36" width="51.46" height="57.61"/><text class="cls-3" transform="translate(25.6 121.97) rotate(-90)">a cup of</text></g></g></svg>