<svg xmlns="http://www.w3.org/2000/svg" viewBox="0 0 850.39 850.39"><defs><style>.cls-1{fill:#c6943c;}.cls-2,.cls-3{fill:#fbfcfc;}.cls-3{font-size:132.5px;font-family:SignPainter-HouseScript, SignPainter;}.cls-4{letter-spacing:0em;}</style></defs><g id="Layer_2" data-name="Layer 2"><g id="Layer_1-2" data-name="Layer 1"><rect class="cls-1" width="850.39" height="850.39"/><path class="cls-2" d="M480.69,658.81H432.14a31.13,31.13,0,0,0-31,31h0a31.13,31.13,0,0,0,31,31h48.55a31.14,31.14,0,0,0,31.05-31h0A31.14,31.14,0,0,0,480.69,658.81ZM490,689.2a11.93,11.93,0,0,1-11.93,11.93H439.51a11.93,11.93,0,0,1-11.93-11.93h0a11.93,11.93,0,0,1,11.93-11.92h38.58A11.93,11.93,0,0,1,490,689.2Z"/><rect class="cls-2" x="355.5" y="745.42" width="119.03" height="16.23" rx="5.24"/><path class="cls-2" d="M355.5,658.81v41.46c0,30.41,26.65,55.06,59.51,55.06s59.52-24.65,59.52-55.06V658.81Z"/><text class="cls-3" transform="translate(143.57 206.47) scale(1.16 1)">a <tspan class="cls-4" x="83.07" y="0">c</tspan><tspan x="124.01" y="0">up of chi</tspan></text></g></g></svg>